<?xml version="1.0" encoding="UTF-8"?><!DOCTYPE svg PUBLIC "-//W3C//DTD SVG 1.1//EN" "http://www.w3.org/Graphics/SVG/1.1/DTD/svg11.dtd"><svg xmlns="http://www.w3.org/2000/svg" xmlns:xlink="http://www.w3.org/1999/xlink"><defs/><symbol id="airplane-takeoff-fill" viewBox="0 0 256 256"><path d="M176,216a8,8,0,0,1-8,8H24a8,8,0,0,1,0-16H168A8,8,0,0,1,176,216ZM246.31,86.76,227.67,62.87l-.12-.15a39.82,39.82,0,0,0-51.28-9.12L124.7,84.38,70.76,64.54a8,8,0,0,0-5.59,0L58,67.27l-.32.13a16,16,0,0,0-4.53,26.47L75,115.06l-20.17,12.2-28.26-9.54a8,8,0,0,0-6.08.4l-3,1.47A16,16,0,0,0,13,145.8l36,35.27.12.12a39.78,39.78,0,0,0,27.28,10.87,40.18,40.18,0,0,0,20.26-5.52l147.41-88a8,8,0,0,0,2.21-11.78Z"/></symbol><symbol id="bookmark-simple-fill" viewBox="0 0 256 256"><path d="M184,32H72A16,16,0,0,0,56,48V224a8,8,0,0,0,12.24,6.78L128,193.43l59.77,37.35A8,8,0,0,0,200,224V48A16,16,0,0,0,184,32Z"/></symbol><symbol id="caret-right-thin" viewBox="0 0 256 256"><path d="M178.83,130.83l-80,80a4,4,0,0,1-5.66-5.66L170.34,128,93.17,50.83a4,4,0,0,1,5.66-5.66l80,80A4,4,0,0,1,178.83,130.83Z"/></symbol><symbol id="chats-fill" viewBox="0 0 256 256"><path d="M232,96a16,16,0,0,0-16-16H184V48a16,16,0,0,0-16-16H40A16,16,0,0,0,24,48V176a8,8,0,0,0,13,6.22L72,154V184a16,16,0,0,0,16,16h93.59L219,230.22a8,8,0,0,0,5,1.78,8,8,0,0,0,8-8Zm-42.55,89.78a8,8,0,0,0-5-1.78H88V152h80a16,16,0,0,0,16-16V96h32V207.25Z"/></symbol><symbol id="house-fill" viewBox="0 0 256 256"><path d="M224,120v96a8,8,0,0,1-8,8H160a8,8,0,0,1-8-8V164a4,4,0,0,0-4-4H108a4,4,0,0,0-4,4v52a8,8,0,0,1-8,8H40a8,8,0,0,1-8-8V120a16,16,0,0,1,4.69-11.31l80-80a16,16,0,0,1,22.62,0l80,80A16,16,0,0,1,224,120Z"/></symbol><symbol id="key-fill" viewBox="0 0 256 256"><path d="M216.57,39.43A80,80,0,0,0,83.91,120.78L28.69,176A15.86,15.86,0,0,0,24,187.31V216a16,16,0,0,0,16,16H72a8,8,0,0,0,8-8V208H96a8,8,0,0,0,8-8V184h16a8,8,0,0,0,5.66-2.34l9.56-9.57A79.73,79.73,0,0,0,160,176h.1A80,80,0,0,0,216.57,39.43ZM180,92a16,16,0,1,1,16-16A16,16,0,0,1,180,92Z"/></symbol><symbol id="magnifying-glass" viewBox="0 0 256 256"><path d="M229.66,218.34l-50.07-50.06a88.11,88.11,0,1,0-11.31,11.31l50.06,50.07a8,8,0,0,0,11.32-11.32ZM40,112a72,72,0,1,1,72,72A72.08,72.08,0,0,1,40,112Z"/></symbol><symbol id="map-pin-fill" viewBox="0 0 256 256"><path d="M128,16a88.1,88.1,0,0,0-88,88c0,75.3,80,132.17,83.41,134.55a8,8,0,0,0,9.18,0C136,236.17,216,179.3,216,104A88.1,88.1,0,0,0,128,16Zm0,56a32,32,0,1,1-32,32A32,32,0,0,1,128,72Z"/></symbol><symbol id="map-trifold" viewBox="0 0 256 256"><path d="M228.92,49.69a8,8,0,0,0-6.86-1.45L160.93,63.52,99.58,32.84a8,8,0,0,0-5.52-.6l-64,16A8,8,0,0,0,24,56V200a8,8,0,0,0,9.94,7.76l61.13-15.28,61.35,30.68A8.15,8.15,0,0,0,160,224a8,8,0,0,0,1.94-.24l64-16A8,8,0,0,0,232,200V56A8,8,0,0,0,228.92,49.69ZM104,52.94l48,24V203.06l-48-24ZM40,62.25l48-12v127.5l-48,12Zm176,131.5-48,12V78.25l48-12Z"/></symbol><symbol id="star-fill" viewBox="0 0 256 256"><path d="M234.29,114.85l-45,38.83L203,211.75a16.4,16.4,0,0,1-24.5,17.82L128,198.49,77.47,229.57A16.4,16.4,0,0,1,53,211.75l13.76-58.07-45-38.83A16.46,16.46,0,0,1,31.08,86l59-4.76,22.76-55.08a16.36,16.36,0,0,1,30.27,0l22.75,55.08,59,4.76a16.46,16.46,0,0,1,9.37,28.86Z"/></symbol></svg>